<?xml version="1.0" encoding="utf-8"?>
<!-- Generator: Adobe Illustrator 25.0.0, SVG Export Plug-In . SVG Version: 6.00 Build 0)  -->
<svg version="1.1" id="Calque_1" xmlns="http://www.w3.org/2000/svg" xmlns:xlink="http://www.w3.org/1999/xlink" x="0px" y="0px"
	 viewBox="0 0 1920 1080" style="enable-background:new 0 0 1920 1080;" xml:space="preserve">
<style type="text/css">
	.st0{font-family:'MyriadPro-Regular';}
	.st1{font-size:32px;}
	.st2{fill:#241918;}
	.st3{fill:#241B1A;}
	.st4{fill:#251C1B;}
	.st5{fill:#241D1C;}
	.st6{fill:#221C1B;}
	.st7{fill:#1A1311;}
	.st8{fill:#F1F0EE;}
	.st9{fill:#201917;}
	.st10{fill:#292020;}
	.st11{fill:#E6E4E3;}
	.st12{fill:#EFEEEC;}
	.st13{fill:#100C09;}
	.st14{fill:#CDC9C8;}
	.st15{fill:#E4DEDB;}
</style>
<g>
	<text transform="matrix(1 0 0 1 840.814 674.1545)" class="st0 st1">La voie du Reiki</text>
	<g>
		<path class="st2" d="M1002.6,608.5c-3.9,2.2-8.2,3.4-12.6,4.2c-1.1,0.2-2.3,0.2-3.4,0.6c-10.9,3.9-12.6,5.3-10.2,17.6
			c-7.7,0-15.3,0-23,0c1.1-4.3-0.9-8.6-0.1-13c1.6-1.4,1.6-2.7-0.1-4.1c0.1-1.3,0.2-2.6,0.2-4c0.1-0.1,0.4-0.2,0.4-0.2
			c-0.1-0.2-0.2-0.5-0.3-0.7c1.5-11.6,13.7-22.5,24.6-22c2.2,0.1,2.9-2.9,5.2-2c2.3,0.2,5.3,0.2,2.8,3.7c-1.5,2.3,0.4,3.1,1.3,4.4
			c3.8,0.9,6.7-1.9,10.2-2.5c1-0.2-0.3-3.8,1.6-5.3c0.6-0.1,1.1-0.2,1.7-0.3c0.1,0.7,0.2,1.5,0.3,2.2c-1,0.9-1,1.8-0.1,3.4
			c0.1-1.2,0.2-1.9,0.3-2.6c0.4,0,0.7,0,1.1,0c0.6-0.1,1.2-0.2,0.9-1c0,0-0.1,0.1-0.1,0.1c1.7,0,3.4,0,5.1,0
			c-0.6,2.6-1.8,5.1,0.5,7.8c1.3,1.6,1.4,5.3-1.4,5.7C1001.9,601.2,1003.1,605.1,1002.6,608.5z"/>
		<path class="st2" d="M894.4,584.2c6.4,2.2,13.1,3.8,19,6.7c8,4,12,11.5,13,20.3c0.7,6.6,0.2,13.2-1,19.8c-6.7,0-13.3,0-20,0
			c0.8-5.3,2.4-10.3,1.7-15.9c-0.6-5-2-7.6-6.7-5.7c-5.5,2.2-10.2-2.6-15.4-0.8c-0.3,0.1-1.2-0.8-1.3-1.3c-0.9-3.4-0.3-8.6-6.5-4.6
			c-0.2,0.2-1.2-0.5-1.6-0.9c-2.4-2.2-3.2,0.1-4.4,1.4c-2.6-2.4-3.7-5.5-4.4-8.9c0.7-0.7,1.6-1.3,1.9-2.1c2.3-5.2,3.2-5.4,7.9-1
			c1.1,1,1.9,0.9,2.8-0.2c4.2-0.2,7.9,2,11.8,3c0.7,1,1.5,2,2.2,3.1c0.1,0.7,0.1,1.6,1.2,1.5c0.1,0,0.3-0.2,0.3-0.3
			c0.1-1.1-0.8-1-1.5-1.2c1.2-2.5,1-4.4-2.2-4.9l0.1,0.1c0-2.8-0.8-5.5-1.9-8.1c0-0.4,0.1-0.9,0.1-1.3c1,0,2.1,0.1,2.8,0.9
			C892.8,584.7,893.4,585.1,894.4,584.2z"/>
		<path class="st3" d="M871.3,603c1.2-1.3,2-3.6,4.4-1.4c0.5,0.4,1.4,1.1,1.6,0.9c6.2-4,5.6,1.2,6.5,4.6c0.1,0.5,1,1.4,1.3,1.3
			c5.2-1.8,9.9,3,15.4,0.8c4.7-1.9,6.1,0.7,6.7,5.7c0.7,5.6-0.9,10.6-1.7,15.9c-0.7,0-1.3,0-2,0c0.2-2.6,0.8-5.3,0.6-7.9
			c-0.3-3.8-2.1-6.8-6.1-7.8c-4.2-1-8.3-2.3-12.5-3.1C879.4,611.1,874.7,608.1,871.3,603z"/>
		<path class="st4" d="M951.3,517.3c1.7-0.7,3.3-2,5.3-1.9c7.6,0.4,8,1.2,5.7,8.5c-1.1,3.6-1.8,7.3-2.7,11c-0.6,0.3-1,0.6-0.1,1
			c0,4.3,0,8.7,0,13c-1.1,0.7-1,1.4,0.2,2c1.7,5.4,3.6,10.8,8.9,13.8c4.8,2.7,8.4,1.8,8-3.8c-0.1-1.9,0.7-3.8,1.1-5.8
			c3.3,4,5.9,16.5,4.2,19.3c-0.5,0.9-1,1.5-1.9,2c-10.5,5.5-23.7-0.3-26-11.7c-2.3-11-2.3-22,0-33.1c0.5-2.4,2.9-6-1.5-7.8
			C951.8,521.7,951,519.6,951.3,517.3z"/>
		<path class="st3" d="M940.4,541.9c-1.1,3.3,0.4,5.7,2.8,7.7c3.5,2.9,5.7,6.4,6.2,11.1c0.3,2.8-3.1,7.3-5.8,7.2
			c-1.2,0-0.9-0.9-1.2-1.6c-1.9-3.5-2.5-8.3-5.9-10c-3.9-1.9-6.2,3.4-9.7,4.7c-4.2,1.5-8.3,3.4-12.3,5.3c-2.4,1.1-4.4,0.8-5.5-1.5
			c-1.3-2.5,1.6-2.4,2.6-3.3c3-2.7,6.5-5,10.3-6.6c1.6-0.2,3.4,0.6,4.7-1l0,0c3.6-0.8,4.8-3.7,4-6.7c-0.8-2.9,0.2-4.7,2-6.5
			c0.6-0.3,1.3-0.6,1.9-0.8C936.5,540.3,937.9,542.7,940.4,541.9z"/>
		<path class="st5" d="M917.5,419c-1.8,2-3.5,3.9-5.3,6c-1.5-3.5,0.2-13,2.9-15.2c1.9-1.5,4.1-2.9,6.9-1.6c3.7,1.7,7.8,1.3,11.8,1.4
			c1.6,0.1,3-0.4,2.9-2.5c-0.1-2.3-1.8-1.4-2.9-1.3c-3.2,0.3-6.1,0.1-8.4-3.4c5.7-0.4,10.6-1.9,15-4.3c6.1-3.2,10.6-0.6,15.6,3
			c-3.1,2.1-6.1,3.3-9.5,3.3c-2.2,0-3.3,1.3-2.9,3.5c0,0.7,0,1.4,0,2.1l0,0c-1,0.5-1.3,2.2-2.6,1.8c-4.4-1.2-4.6,0.9-3.4,4.1
			c-0.3,0-0.6,0-0.9,0c-1-1.7-2.8-0.3-4.1-0.9c-0.5-0.9-0.8-0.5-0.9,0.2c-1.6,1-3.4,0.7-5.1,0.5c-0.3-1-1.3-2.3-1.6-0.8
			c-0.7,3.2-3.1,2.4-5,2.8C918.9,418,917.5,416.9,917.5,419z"/>
		<path class="st6" d="M925.4,454.3c-1.2-0.7-3.7,0.9-3.9-1.8c-0.1-2.6,2.2-1.1,3.3-1.6c3-1.6,6.6-0.2,9.6-1.8
			c7.6,0,14.9-1.2,22-4.1c0.9,0.9,1.9,1.7,2.7,2.8c0.8,1.1,2.8,2.3,1.9,3.6c-0.9,1.4-3.3,2.2-4.8,1.5c-3.6-1.7-3.7,0.4-3.7,2.9
			c-0.5,1.2-1.3,2-2.5,2.4c-0.7-2.3-0.8-4.6-4.6-4.2c-4.1,0.4-3.2,3.1-3.2,5.3c0,2.9-0.4,5.9,0.5,8.8c1.1,1,0,1.5-0.5,2.1
			c-0.6,0-1.3,0-1.9,0c0,0,0,0,0,0c-0.3-0.3-0.7-0.7-1-1c-0.6,0.3-1.3,0.7-1.9,1c-0.1-1.1,0.1-2.4-1.2-3c0-1,0-2,0-3
			c0.7-0.3,0.8-0.7,0-1c0-1,0-2,0.1-3c0.5-0.3,1.5-0.5,1.5-0.8c0.2-1.1-0.9-1.1-1.6-1.2c-0.8-1.1,0.3-3.4-2.2-3.5
			c-0.8-0.6-1.5-2.4-2.7-0.3c-1.7,0.1-3.3,0.1-5,0.2C926.2,454.3,925.8,454.3,925.4,454.3z"/>
		<path class="st5" d="M948.1,432.3c3.8-0.2,7.4-1.2,11-2.2c2.2-0.7,4.4-0.2,5.9,1.5c1.4,1.5,0.1,3.1-0.6,4.5
			c-0.1,0.3-0.4,0.6-0.4,0.9c-0.1,4.9-2.8,6.9-7.4,7.2c-9.2,3-5.3-6.3-9-9.3c-1.9,6.5-4.2,12.8-12.9,11c-1-2.7-0.5-6.2-3.9-7.7
			c-1.4-0.1-2.2-0.8-2.1-2.2c2.3-0.4,4.7-1.8,7,0.2c1.2,2.1-0.6,6.1,3.9,6c3.5-0.1,2.2-2.9,2.6-4.8c0.4-0.4,1-0.9,1-1.3
			c0-1-1-0.9-1.7-1.1c0.1-0.4,0.1-0.7,0.2-1.1C943.3,431.7,946.4,435,948.1,432.3z M958.4,436.9c0.8-0.2,2.2-0.3,2.2-0.5
			c0.1-1.4-1.1-1.4-2.1-1.5c-0.4-0.2-1.1-0.6-1.3-0.5c-1.4,1-4.4-0.2-4.3,2.9c0.1,1.2-0.4,3.2,1.1,3.4
			C956.6,441.1,957.5,438.8,958.4,436.9z"/>
		<path class="st7" d="M969.5,469.7c2,0.6,5.4-0.5,5,3.1c-0.3,2.8-2.8,2.9-5.3,3.1c-17.3,1.5-34.5,2-51.8,2.4
			c-2.2,0-6.3,1.9-5.8-3.4c3.3-0.6,6.8,0.9,9.9-1.3c2,0,4,0.1,6.1,0.1c3.2,0.7,6-0.5,8.8-2c1.1,0.4,2.2,0.8,3.3,1.1
			c2.9,3.5,5.5,3.9,8,1c1.5,0,2.5-0.8,3.1-2.1c2.9,0.7,5-2.5,7.9-1.6c1,1.3,0.3,3.5,1.1,4.3C961.9,477,968.8,473.6,969.5,469.7z
			 M934.9,476.5c-0.3-0.1-0.5-0.1-0.7-0.2c0,0.1,0.1,0.2,0.1,0.4C934.4,476.6,934.6,476.6,934.9,476.5z"/>
		<path class="st7" d="M879.5,590.8c-0.8,1.1-1.7,1.3-2.8,0.2c-4.7-4.4-5.6-4.2-7.9,1c-0.4,0.8-1.3,1.4-1.9,2.1
			c-1.6-4.8-5.5-8.2-7.5-12.8c-0.8-1.8-1.5-3.7-2.2-5.5c1.9-0.3,2.4,2.2,4.2,2c0.6,1-0.5,3.8,2.4,2.5c1.3-0.6,3.4-1,0.6-2.6
			c0-0.6,0-1.3-0.1-1.9c0.4-2.1,1.4-2.6,3-1c0.1,1.4,0.5,2.8,2.2,2.6c1.4-0.1,1.7-1.4,1.7-2.6c0.6-0.1,1.1-0.2,1.7-0.4
			c1.5,1.5,0.9,4.9,4.3,4.6c0.3,1.2,0.7,2.4,1,3.7c-1,0.9-1.2,1.5,0.4,1.9l0.4,0.1c0.1,0.9,0.1,1.7,0.2,2.6l0.1,0.3
			C879.4,588.8,879.5,589.8,879.5,590.8z M868.9,584.3c0.1-0.3,0.2-0.5,0.2-0.8c0-0.1-0.3-0.3-0.4-0.3c-0.2,0.1-0.4,0.3-0.6,0.5
			C868.4,583.9,868.6,584.1,868.9,584.3z"/>
		<path class="st5" d="M956.6,407.7c4,0.6,7.4-3.3,11.7-1.6c3,1.2,7.1,1.9,7.1,5.4c0,3.3-2.5,6.2-6.7,6.7c-3,0.4-5.8,1.8-8.6,2.7
			c-1.1-1.6,0.3-2.2,0.6-3c0.7-1.7,3-3.5,2-4.9c-1.5-2.2-4.2-1.1-6.4-0.4c-2,0-3.9,0.1-5.9,0.1C951,409.3,955.7,410.9,956.6,407.7z"
			/>
		<path class="st8" d="M934.4,539.9c-0.6,0.3-1.3,0.6-1.9,0.8c-4.6-1.2-9.2-2.5-13.8-3.7c-2.3-0.9-2.4-2.7-2-4.7
			c3.6,1.5,6.7-0.4,9.9-1.6c5.2-1.9,10.3-4.1,15.9-4.6c0,0.5,0,1,0,1.5c-4.8,0.8-6.7,3.7-5.9,8.4
			C935.9,537.3,934.3,538.1,934.4,539.9z"/>
		<path class="st9" d="M956.6,407.7c-0.8,3.1-5.6,1.5-6.1,5c-7.1,1.3-7.2,1.3-7,8.3c0.1,4.2-0.5,8.1-2,11.9c-4.3-0.5-5-3.5-5.1-7
			c0-1,0-2-0.1-3c0-0.3,0-0.7,0-1c0.1-0.9,0.2-1.9,0.3-2.8c0.6-0.1,1.2-0.1,1.8-0.2c1-0.1,2.1-0.4,1.8-1.7c-0.3-1.6-1.7-1.2-2.7-1.3
			l0,0c-1.2-3.3-1-5.3,3.4-4.1c1.3,0.4,1.6-1.4,2.6-1.8c0.1,0.6,0.1,1.4,0.9,1.5c0.2,0,0.6-0.4,0.6-0.6c-0.1-0.9-0.8-0.8-1.5-1
			c0-0.7,0-1.4,0-2.1c3.8,1.7,7.3-0.2,11-0.6C955.3,407.2,956.1,406.7,956.6,407.7z M940.2,421.3c-0.1,0.3-0.4,0.6-0.3,0.8
			c0.1,0.2,0.5,0.3,0.8,0.4c0.1-0.3,0.4-0.6,0.3-0.8C940.9,421.5,940.5,421.4,940.2,421.3z"/>
		<path class="st10" d="M942.5,526.1c-5.6,0.5-10.7,2.7-15.9,4.6c-3.2,1.2-6.3,3.1-9.9,1.6c-1.1-1.3-3.3-2.1-2.3-4.4
			c0.8-0.1,1.7,0,2-1.1c0.7,0,1.4,0,2,0c1.5,0.4,2-0.5,2.4-1.6c3.5-0.6,7-1.2,10.5-1.9c1.8,1.4,2.7,0.4,3.5-1.2
			c2.2-0.3,4.4-0.6,6.6-1c-0.2,1.7,0.7,3,1.2,4.5L942.5,526.1z"/>
		<path class="st10" d="M931.5,504.3c3.6,0.1,6.8-1.5,10.1-2.6c4-1.3,7.9-0.6,11.8,0.2c0.9,0.2,1.5,0.5,1.6,1.5
			c0.2,1.2-0.7,1.5-1.4,1.7c-1.8,0.7-3.7,1.5-5.5,1.7c-6.3,0.6-12.5,1.7-18.6,3.3C925.6,506.7,928.4,505.5,931.5,504.3z"/>
		<path class="st10" d="M873.2,574.6c-0.6,0.1-1.1,0.2-1.7,0.4c-1.3,0-2.7,0-4,0c-1.7-1.6-2.6-1.1-3,1c-1.4,0-2.4,0.7-3,2l0,0
			c-1.8,0.1-2.4-2.3-4.2-2c-1.6-3.7-4.7-6.9-4.3-11.1c0.1-1.2-1.6-2.8,0.5-3.8c2.2-1.1,2.7,1.4,4.1,1.9c1.1,1.5-3.4,2.6-0.5,3.8
			c1.4,0.6,2,1.2,2.9,2.3c1.8,2,4.2,3,5.5-0.8C869.8,568.1,871.6,571.2,873.2,574.6z M861.7,573c-0.1-0.2-0.1-0.5-0.2-0.7
			c0,0-0.4,0-0.4,0.1c-0.1,0.3-0.1,0.5-0.2,0.8C861.2,573.1,861.4,573.1,861.7,573z"/>
		<path class="st9" d="M1002.6,608.5c0.4-3.3-0.7-7.2,4.9-7.9c2.9-0.4,2.7-4.1,1.4-5.7c-2.2-2.8-1.1-5.2-0.5-7.8
			c0.3-0.3,0.6-0.5,0.9-0.8c0.1-0.4,0.1-0.9,0.2-1.3c1.3-0.7,2.6-1.3,4-2c1.4,0.4,2.8,0.7,4.1,1.1
			C1012.9,592.3,1012,603,1002.6,608.5z"/>
		<path class="st11" d="M936.2,471.8c-2.7,1.5-5.5,2.7-8.8,2c0.3-1.9,2.7-2.9,2.1-5.1c1.1,0.4,2.1,2.2,3.3,0.8
			c1.2-1.4,1-3.4-0.5-4.4c-2.8-1.8-2.8-4.5-2.8-7.2c-0.4-0.5-0.7-0.9-1.1-1.4c-0.7-0.3-1.3-0.5-2-0.8l-0.2-0.4c0,0-0.1,0-0.1,0
			c0.1-0.4,0.1-0.7,0.2-1.1c1.7-0.1,3.3-0.1,5-0.2c0.8,1,1.7,0.8,2.7,0.3c2.5,0.1,1.4,2.4,2.2,3.5c0,0.7,0.1,1.3,0.1,2
			c0,1,0,2-0.1,3c0,0.3,0,0.7,0,1c0,1,0,2,0,3c0,1,0,2-0.1,3C936.3,470.6,936.2,471.2,936.2,471.8z"/>
		<path class="st9" d="M920.1,512.8c-0.8,0.8-2.4,1-2,2.7l-0.2,0.2c-2.8,0.3-4.5,2.4-6.1,4.3c-2.2,2.6-4.5,2.5-8.6,1.9
			c6.5-5.2,11.4-10.5,14.9-17c1.1,1.8,4,1.7,4.3,4.3C921.8,510.4,920.9,511.6,920.1,512.8z"/>
		<path class="st9" d="M987.5,593.1c-0.9-1.3-2.9-2.2-1.3-4.4c2.5-3.6-0.5-3.5-2.8-3.7c1.9-1.2,3.7-2.4,5.6-3.5
			c0.2,3.4,2.4,4.3,5,3.3c3.3-1.2-0.4-2.8-0.1-4.3c0.1-0.7-0.5-1.5-0.8-2.3c1.3-0.9,2.5-1.9,3.9-2.7c2.8-1.7,3.7-0.3,3.6,2.4
			c-2.4,1.9,1.6,2.4,0.9,4c-0.2,1-0.3,2.1-0.5,3.1c-0.6,0.1-1.1,0.2-1.7,0.3c-0.2-1.5-0.9-1.4-1.9-0.6
			C994,587.3,990,589.4,987.5,593.1z"/>
		<path class="st12" d="M934.6,445.7c8.8,1.9,11.1-4.5,12.9-11c3.7,3-0.2,12.3,9,9.3c0,0.3,0,0.6,0,0.9c-7,2.9-14.4,4.1-22,4.1
			C934.5,447.9,934.5,446.8,934.6,445.7z"/>
		<path class="st9" d="M918.7,537c4.6,1.2,9.2,2.5,13.8,3.7c-1.8,1.8-2.7,3.6-2,6.5c0.8,3-0.4,5.8-4,6.7c-0.1-0.1-0.3-0.2-0.4-0.2
			c0.1,0.1,0.3,0.2,0.4,0.2c-1.3,1.6-3.1,0.8-4.7,1c1.1-1.1,2.2-2.3,3.4-3.4c3.7-3.7,3.5-5.2-0.9-8.4
			C922,541.5,918.5,540.9,918.7,537z"/>
		<path class="st10" d="M941.7,511c1.6,0,3.2-0.1,4.8,0.1c1.8,0.2,4.3-0.3,5,1.8c0.7,2.1-1.9,2.6-3.1,3.8c-0.7,0.1-1.3,0.2-2,0.3
			c-4.4-0.7-8.6,1-12.9,1c0-1.3,0-2.7,0-4c0.4-0.6,0.9-1.3,1.3-1.9c0.9,0,1.8-0.1,2.7-0.1C939.3,513.7,940.6,512.9,941.7,511z"/>
		<path class="st9" d="M1022.4,562.3c1.3-1.1,2.5-2.3,4.3-0.8c1.4,1.3,0.5,2.5,0.1,3.9c-1.4,4.6-3.4,8.8-5.4,13.1
			c-2.4-1.4-4.7,0.6-7,0.4c-1.3-2.4-0.1-3.5,2.1-4.1c1.6,1.5,1.8,0.4,2.1-1c1.1-0.8,0.9-1.5-0.1-2.1
			C1020.2,568.8,1021.6,565.7,1022.4,562.3z"/>
		<path class="st12" d="M941.5,433c1.4-3.8,2.1-7.8,2-11.9c-0.2-7-0.1-7,7-8.3c2,0,3.9-0.1,5.9-0.1c0,0.5,0,0.9,0.1,1.4
			c-2.6,0.4-5.2,0.5-7.6,1.3c-1.4,0.4-3.9,1.6-0.9,3.6c-0.3,2-1.7,4.8,2.5,4c0.4,0,0.8,0.1,1.3,0.1c-1.1,1.8-3.2,0.6-4.7,1.7
			c-2.2,1.6-2.3,2.6-0.5,4.3c-0.1,1.4,0.2,2.6,1.6,3.3c-1.7,2.8-4.8-0.6-6.7,1.4C941.4,433.5,941.4,433.2,941.5,433z"/>
		<path class="st6" d="M928.5,435.8c0,1.5,0.7,2.1,2.1,2.2c-1.6,2-2.4,4.3-2.3,6.9c-1.2,0-2.4,0-3-1.3c-0.2-1.7,0.4-4-1.6-4.7
			c-1-0.4-2.7,0.4-3.6,1.1c-1.5,1.2-0.4,2.6,0.4,3.8c-0.2,2.7-2,0.8-3,1.1c-0.6-1.1-1.5-2.2-1.8-3.4c-0.6-2.4-4-6.3,2.8-4.8
			C921.7,437.5,924.8,433.1,928.5,435.8z"/>
		<path class="st5" d="M936.6,536c-0.8-4.7,1.1-7.6,5.9-8.4c2,1.3,4.3,1.9,7.5,2.2c-2.5,2.9-4.4,5-6.3,7.2c-1.5-0.1-3.3,1.6-4.2-1
			c0.1-0.1,0.2-0.3,0.2-0.4c-0.1,0.1-0.2,0.3-0.2,0.4C938.5,536.5,937.6,536.6,936.6,536z"/>
		<path class="st9" d="M1008.4,570.9c1.7-1.7,3.3-3.5,6.1-3.1c-0.3,1.4-0.6,2.8-0.9,4.1c-3.6,3-2.5,8.5-6,11.6c-0.1,0.1,0,0.3,0,0.5
			c-0.7,0-1.5,0-2.2,0.1c-0.2,0-0.4,0-0.6,0c-1.9-0.8-0.6-3.3-2.3-4.2c0-0.6,0.1-1.2,0.1-1.8l-0.1-0.3
			C1007.2,577.9,1006.2,573,1008.4,570.9z"/>
		<path class="st10" d="M922.6,509.2c-0.3-2.6-3.2-2.5-4.3-4.3c0.3-1.1,0.6-2.2,1-3.3c0.5-1.2-0.8-3.8,1.4-3.4
			c2.7,0.5,6.4-2.4,8.1,2C928.2,504.2,924.5,506,922.6,509.2z"/>
		<path class="st12" d="M922.6,509.2c1.9-3.1,5.7-5,6.3-9c3.6-0.4,2.3,2.5,2.7,4.2c-3.1,1.2-5.9,2.4-2,5.9c0,1.1,0,2.3,0,3.4
			c-0.8,0.2-1.9,0-2.4,1l-0.1,0c-1-0.1-1.5,0.7-2,1.4c-2.1-0.4-3.3-2.1-4.9-3.3C920.9,511.6,921.8,510.4,922.6,509.2z"/>
		<path class="st4" d="M878.4,582.9c-0.3-1.2-0.7-2.4-1-3.7c2.3,0.2,1.6-5.3,5.7-2.6c2.6,1.7,6,2.2,6.4,6.1c0,0.4-0.1,0.9-0.1,1.3
			c-1.3,0-2.7,0-4,0c-0.1-0.1-0.3-0.2-0.4-0.2c0.1,0.1,0.3,0.2,0.4,0.2c0,0.7,0,1.4,0,2.1c-1.7,0.1-2.9-1-3.9-2.1
			c-0.1-0.5,0.2-1.2-0.6-1.2c-0.1,0-0.3,0.7-0.4,1.1c-0.2,0.2-0.5,0.2-0.8,0.2c-0.3,0-0.7,0.1-1,0.1
			C878.6,583.7,878.5,583.3,878.4,582.9z"/>
		<path class="st13" d="M917.5,419c0-2.1,1.4-1,2.4-1.2c1.9-0.4,4.2,0.4,5-2.8c0.4-1.6,1.4-0.2,1.6,0.8c-0.9,3.3,1.8,2.2,3,2.1
			c2.3-0.1,3.7,0.5,3.9,3c-2.8,1.8-5.3,4.9-9.2,1.4C922.3,420.7,919.7,420,917.5,419z"/>
		<path class="st10" d="M1013.5,571.9c0.3-1.4,0.6-2.8,0.9-4.1c1.1-2,2-4.1,3.2-6c1.8-2.8,3.5-2.5,4.8,0.6c-0.8,3.4-2.2,6.5-4,9.5
			C1016.8,571.3,1015.2,573.7,1013.5,571.9z"/>
		<path class="st9" d="M865.4,568.1c-1.3,3.8-3.7,2.8-5.5,0.8c-0.9-1.1-1.5-1.7-2.9-2.3c-2.9-1.2,1.5-2.3,0.5-3.8
			c1.1-3.3,2.8-3.9,4.8-0.7C863.5,564.1,864.4,566.1,865.4,568.1z"/>
		<path class="st5" d="M946.5,429c-1.9-1.7-1.7-2.7,0.5-4.3c1.5-1.1,3.6,0.1,4.7-1.7c1.9,0.2,3.6,1.7,5.6,0.6
			c1.6-0.8,1.9,0.4,2.1,1.5c0.1,0.8,0.1,1.9-1,1.8C954.2,426.5,950.6,429.3,946.5,429z"/>
		<path class="st9" d="M950.1,458.1c1.2-0.4,2-1.2,2.5-2.4c2.7-0.1,1.9,1.8,1.9,3.2c-0.7,0.7-1.3,1.4-2,2c-1.3,0.8-1.6,1.6-0.3,2.7
			c-0.8-0.1-1.3,0.1-1.6,0.9c-0.4,0.5-0.8,0.9-1.2,1.4c-0.7,0.6-1.4,1.2-2.1,1.8c-1.5-0.2-3,2.9-4.6,0.2
			C945.2,464.6,947.7,461.3,950.1,458.1z"/>
		<path class="st10" d="M969.5,469.7c-0.7,3.9-7.5,7.3-9.9,4.8c-0.8-0.8-0.1-3-1.1-4.3c0.7-0.2,1.4-0.4,2.1-0.6
			c0.3,0.1,0.6,0.2,1,0.3c0.4,0.9,1,2,2,1.6c0.9-0.4-0.2-1.4-0.2-2.1C965.4,468.8,967.6,466.2,969.5,469.7z"/>
		<path class="st5" d="M947.9,418.9c-3-2-0.5-3.1,0.9-3.6c2.4-0.8,5.1-0.9,7.6-1.3c3.1,3.1,1.7,4.8-1.8,5.9
			c-0.4,0.3-0.7,0.5-1.1,0.8c-0.7,0.1-1.3,0.2-2,0.3C950.9,419.4,949.6,418.8,947.9,418.9z"/>
		<path class="st7" d="M942.7,525.6c-0.5-1.5-1.4-2.8-1.2-4.5c1.7-0.7,3.3-1.4,5-2c0.8,0,1.6-0.1,2.1-0.9c0.9-0.3,1.9-0.6,2.8-0.8
			c-0.3,2.3,0.4,4.4,1.1,6.5c-1.7,0.3-3.3,0.7-5,1c-0.3-1.2,1.6-3,0.1-3.3c-2.2-0.4-1.9,1.9-2.1,3.5
			C944.5,525.2,943.6,525.4,942.7,525.6z"/>
		<path class="st10" d="M923,432.1c-1.3-0.5-3.6,0.6-3.2-1.6c0.8-4.3,4.8-2.9,7.6-3.5c1.4-0.3,3.7-0.1,3,2
			C929.1,432.4,925.3,430.9,923,432.1z"/>
		<path class="st11" d="M933.3,420.9c-0.1-2.5-1.5-3.1-3.9-3c-1.2,0.1-3.9,1.2-3-2.1c1.7,0.2,3.5,0.5,5.1-0.5
			c0.3-0.1,0.6-0.1,0.9-0.2c1.3,0.6,3-0.9,4.1,0.9c0,1,0,2.1,0,3.1c-0.1,0.9-0.2,1.9-0.3,2.8C935.3,421.6,934.3,421.2,933.3,420.9z"
			/>
		<path class="st14" d="M941.9,437.2c-0.4,1.8,0.9,4.7-2.6,4.8c-4.4,0.1-2.7-3.9-3.9-6c1.7-0.1,2.9-3.1,5-1
			C938.6,437.2,941.1,436.7,941.9,437.2z"/>
		<path class="st7" d="M927.1,514.7c0.5-1,1.5-0.8,2.4-1c1,0,2,0,3,0.1c0.3,0.1,0.7,0.2,1,0.2c0,1.3,0,2.7,0,4
			c-3.3,1.7-6.5,2-9.6-0.4l-0.2-0.2c0.9,0,1-0.7,1.3-1.4C925.6,515.4,926,514.7,927.1,514.7c0.7,1.7,1.6,3.1,4,2.7
			C930.8,514.7,928.6,515.1,927.1,514.7z"/>
		<path class="st7" d="M939.5,535.9c0.9,2.5,2.8,0.8,4.2,1c-1.1,1.7-2.2,3.3-3.3,5c-2.5,0.8-3.9-1.6-6-2c-0.1-1.8,1.5-2.6,2.2-3.9
			C937.6,536.6,938.5,536.5,939.5,535.9L939.5,535.9z"/>
		<path class="st11" d="M921.4,473.7c-3.1,2.2-6.6,0.7-9.9,1.3c0.4-3.2,2.9-1.7,4.6-2.1c1.7-0.4,4.3-0.1,1-2.7
			c-1.3-1.1,0.5-2,1.8-2.3c0.5,0.4,1,0.8,1.5,1.2C920.3,470.7,920.5,472.3,921.4,473.7z"/>
		<path class="st7" d="M921.2,464.9c3-2.5,1-7.7,5.2-9.5c0,0,0.2,0.4,0.2,0.4c-1.6,3,1.5,6.9-1.7,9.6c0,1-0.5,1.5-1.4,1.8
			C923.4,465.6,922.6,464.9,921.2,464.9z"/>
		<path class="st7" d="M925.3,443.6c0.6,1.4,1.8,1.3,3,1.3c0,0.7,0.5,1.6-0.8,1.8c-2.7,0.4-5.4,0-8.1,1c-2.3,0.8-1.9-1.4-1.9-2.8
			c1-0.3,2.8,1.6,3-1.1C922.1,443.8,923.7,443.7,925.3,443.6z"/>
		<path class="st11" d="M960.5,469.7c-0.7,0.2-1.4,0.4-2.1,0.6c-2.9-0.9-5.1,2.3-7.9,1.6c0-0.3-0.1-0.5-0.1-0.8
			c0.6-1.3,1.2-2.6,1-4.1c0,0,0,0,0,0c1,0,2.1,0,3.1,0c1.5,0.9,2.8,3,4.9,1.1C960.3,468.3,960.5,468.9,960.5,469.7z"/>
		<path class="st2" d="M1014.3,579c2.4,0.2,4.6-1.8,7-0.4c0,0-0.1,0.4-0.1,0.4c-1.9,0.3-1.7,1.7-1.7,3.1c0,0,0-0.1,0-0.1
			c-0.9,0.2-1.1,0.9-1.2,1.7c-0.2,0.2-0.5,0.3-0.8,0.3c-1.4-0.4-2.8-0.7-4.1-1.1C1013.8,581.6,1014.1,580.3,1014.3,579z"/>
		<path class="st8" d="M1008.4,570.9c-2.2,2.1-1.2,7-6,6.9c-0.4-2.5,1.9-4.2,1.8-6.9C1004.1,569,1006.9,571.2,1008.4,570.9z"/>
		<path class="st13" d="M959.5,467.9c-2.1,2-3.4-0.2-4.9-1.1c-0.1-0.3-0.1-0.7-0.2-1c-0.1-3,0.5-5,4-2.8
			C959.4,464.6,960.2,466.1,959.5,467.9z"/>
		<path class="st2" d="M993.2,578.2c0.3,0.8,0.9,1.6,0.8,2.3c-0.3,1.5,3.4,3.1,0.1,4.3c-2.7,0.9-4.8,0-5-3.3c0,0,0,0,0,0
			c0.7,0.2,1.1,0,1.4-0.6C991.4,579.9,992.3,579.1,993.2,578.2z"/>
		<path class="st11" d="M958.4,463.1c-3.5-2.1-4.1-0.2-4,2.8c-1.2-0.5-2.5-0.9-3.7-1.4c0.2-0.8,0.8-1,1.6-0.9
			c0.1-0.9,0.2-1.8,0.2-2.7c0.7-0.7,1.3-1.4,2-2C954.9,461.1,958.6,460.3,958.4,463.1z"/>
		<path class="st6" d="M921.2,464.9c1.4,0.1,2.2,0.8,2.3,2.2c-0.6,1.3-1.6,1.9-3,2c-0.5-0.4-1-0.8-1.5-1.2
			C919.5,466.8,920,465.5,921.2,464.9z"/>
		<path class="st7" d="M947.9,418.9c1.7-0.1,3,0.4,3.6,2.1c-0.4,0.6-0.8,1.2-1.1,1.8C946.1,423.8,947.6,421,947.9,418.9z"/>
		<path class="st10" d="M945.5,524.9c0.1-1.5-0.1-3.9,2.1-3.5c1.6,0.3-0.4,2.1-0.1,3.3C946.8,524.9,946.1,524.9,945.5,524.9z"/>
		<path class="st12" d="M941.7,511c-1.1,1.8-2.4,2.6-4.2,0.9C938.6,510.4,940.2,510.9,941.7,511z"/>
		<path class="st13" d="M1002.5,578.1c0,0.6-0.1,1.2-0.1,1.8c-0.1,0.8-0.1,1.6-0.9,1.9c0.7-1.6-3.3-2-0.9-4
			C1001.3,577.9,1001.9,578,1002.5,578.1z"/>
		<path class="st10" d="M941.9,437.2c-0.8-0.5-3.3,0-1.4-2.3c0.2-0.1,0.5-0.1,0.7-0.1c0.7,0.2,1.7,0.1,1.7,1.1
			C942.9,436.3,942.3,436.8,941.9,437.2z"/>
		<path class="st12" d="M934.9,522.1c-0.8,1.6-1.7,2.6-3.5,1.2C932.2,521.8,933.5,521.9,934.9,522.1z"/>
		<path class="st11" d="M936.3,422.9c0,1,0,2,0.1,3C933.3,425,935,424,936.3,422.9z"/>
		<path class="st13" d="M953.3,613.9c1.6,1.3,1.6,2.7,0.1,4.1C953.3,616.6,953.3,615.2,953.3,613.9z"/>
		<path class="st12" d="M916.4,526.8c-0.3,1-1.2,1-2,1.1c0,0,0.1,0.1,0.1,0.1c0-1-0.8-1-1.5-1.2
			C914.2,526.3,915.3,525.8,916.4,526.8z"/>
		<path class="st10" d="M913,526.8c0.7,0.2,1.4,0.3,1.5,1.2C912.9,528.9,913,527.8,913,526.8z"/>
		<path class="st12" d="M920.9,525.1c-0.4,1.1-1,2.1-2.4,1.6C918.7,525.3,919.5,524.8,920.9,525.1z"/>
		<path class="st12" d="M948.5,518.2c-0.5,0.8-1.3,0.9-2.1,0.9c0-0.7-0.1-1.3-0.1-2c0.7-0.1,1.3-0.2,2-0.3
			C948.4,517.2,948.5,517.7,948.5,518.2z"/>
		<path class="st12" d="M933.5,514c-0.3-0.1-0.7-0.2-1-0.2c0.2-1.4,0.9-1.9,2.3-1.7C934.3,512.7,933.9,513.4,933.5,514z"/>
		<path class="st7" d="M963.3,469.4c0,0.7,1.1,1.7,0.2,2.1c-1.1,0.5-1.6-0.7-2-1.6C962.1,469.7,962.7,469.5,963.3,469.4z"/>
		<path class="st9" d="M1019.6,582.1c-0.1-1.4-0.3-2.8,1.7-3.1C1020.7,580,1020.1,581.1,1019.6,582.1z"/>
		<path class="st13" d="M959.7,550.9c-1.2-0.6-1.3-1.2-0.2-2C959.5,549.6,959.6,550.2,959.7,550.9z"/>
		<path class="st7" d="M894.4,584.2c-1,0.9-1.6,0.5-2-0.6C893.3,583,893.8,583.8,894.4,584.2z"/>
		<path class="st9" d="M1018.5,583.7c0.1-0.8,0.3-1.4,1.2-1.7C1019.5,582.7,1019.5,583.6,1018.5,583.7z"/>
		<path class="st9" d="M990.5,580.8c-0.3,0.6-0.8,0.8-1.4,0.6C989.4,580.9,989.8,580.5,990.5,580.8z"/>
		<path class="st12" d="M918.2,515.5c0.2,0.2,0.4,0.3,0.6,0.5c-0.6,0.6-0.5-0.3-0.8-0.3C918,515.7,918.2,515.5,918.2,515.5z"/>
		<path class="st8" d="M999.5,571.9c0.1,0.1,0.3,0.1,0.4,0.2C999.7,572.1,999.6,572,999.5,571.9L999.5,571.9z"/>
		<path class="st8" d="M999.5,571.9c-0.1-0.1-0.3-0.1-0.4-0.2C999.2,571.8,999.3,571.9,999.5,571.9
			C999.5,571.9,999.5,571.9,999.5,571.9z"/>
		<path class="st14" d="M926.5,454.3c-0.1,0.4-0.1,0.7-0.2,1.1c-0.9,0.1-0.9-0.5-0.9-1.1C925.8,454.3,926.2,454.3,926.5,454.3z"/>
		<path class="st7" d="M953.5,420.8c0.4-0.3,0.7-0.5,1.1-0.8C954.4,420.5,954.2,421,953.5,420.8z"/>
		<path class="st13" d="M959.5,535.9c-0.8-0.5-0.5-0.8,0.1-1C959.6,535.2,959.5,535.6,959.5,535.9z"/>
		<path class="st13" d="M953.6,609c0.1,0.2,0.2,0.5,0.3,0.7c0,0.1-0.2,0.2-0.4,0.2C953.6,609.6,953.6,609.3,953.6,609z"/>
		<path class="st12" d="M923.9,517.6c-0.2,0.2-0.3,0.4-0.5,0.7c-0.6-0.6,0.3-0.5,0.3-0.8C923.8,517.5,923.9,517.6,923.9,517.6z"/>
		<path class="st11" d="M987.5,593.1c2.5-3.7,6.4-5.8,9.9-8.4c1-0.8,1.7-0.9,1.9,0.6c-1.9,1.5-0.6,5.2-1.6,5.3
			C994.3,591.2,991.3,594,987.5,593.1z"/>
		<path class="st10" d="M1001.5,581.8c0.8-0.4,0.9-1.2,0.9-1.9c1.7,0.9,0.4,3.4,2.3,4.2c0,0.3-0.1,0.6-0.3,0.9
			c-0.3,0.5-0.6,1-0.9,1.5c0.1,0.2,0,0.4-0.2,0.5c0,0,0.1-0.1,0.1-0.1c-0.3,0.3-0.6,0.7-0.9,1c-0.4,0-0.7,0-1.1,0
			c0-0.3-0.1-0.5-0.2-0.8c-0.1-0.7-0.2-1.5-0.3-2.2C1001.2,583.9,1001.3,582.9,1001.5,581.8z"/>
		<path class="st14" d="M1004.5,584.9c0.1-0.3,0.2-0.6,0.3-0.9c0.2,0,0.4,0,0.6,0c0,3.2,2.7,1.4,4.1,2.2c-0.3,0.3-0.6,0.5-0.9,0.8
			c-1.7,0-3.4,0-5.1,0c0.2-0.1,0.3-0.3,0.2-0.5C1003.9,585.9,1004.2,585.4,1004.5,584.9z"/>
		<path class="st13" d="M1001.3,587.2c0.1,0.3,0.1,0.5,0.2,0.8c-0.1,0.7-0.1,1.4-0.3,2.6C1000.3,589,1000.3,588,1001.3,587.2z"/>
		<path class="st14" d="M1002.6,587.9c0.3-0.3,0.6-0.7,0.9-1C1003.7,587.7,1003.1,587.8,1002.6,587.9z"/>
		<path class="st15" d="M881.5,584c1.1,1.1,2.2,2.2,3.9,2.1c2,2,4,4,5.9,6c0,0-0.1-0.1-0.1-0.1c0,0.6,0,1.2,0,1.8
			c-3.9-1-7.5-3.3-11.8-3c0-1-0.1-2-0.1-3c0.4,0.1,0.8,0.2,0.6-0.5c0,0-0.4,0.1-0.7,0.1c-0.1-0.9-0.1-1.7-0.2-2.6
			c0.2-0.3,0.3-0.6,0.5-0.9c0.3,0.1,0.5,0,0.8-0.2C880.8,583.9,881.1,583.9,881.5,584z"/>
		<path class="st7" d="M891.4,592.1c-2-2-4-4-5.9-6c0-0.7,0-1.4,0-2.1l0,0c1.3,0,2.7,0,4,0C890.5,586.6,891.3,589.2,891.4,592.1z"/>
		<path class="st7" d="M891.3,593.9c0-0.6,0-1.2,0-1.8c3.2,0.5,3.4,2.4,2.2,4.9l0,0C892.7,595.9,892,594.9,891.3,593.9z"/>
		<path class="st7" d="M893.5,596.9c0.7,0.2,1.6,0.1,1.5,1.2c0,0.1-0.2,0.3-0.3,0.3C893.6,598.5,893.6,597.7,893.5,596.9
			C893.5,596.9,893.5,596.9,893.5,596.9z"/>
		<path class="st13" d="M936.6,419.1c0-1,0-2.1,0-3.1c0.3,0,0.6,0,0.9,0c0,0,0,0,0,0c0.3,1,0.6,2,0.9,3
			C937.8,419,937.2,419,936.6,419.1z"/>
		<path class="st13" d="M932.5,415.1c-0.3,0.1-0.6,0.1-0.9,0.2C931.7,414.6,932,414.2,932.5,415.1z"/>
		<path class="st8" d="M950.1,458.1c-2.4,3.3-4.9,6.5-7.3,9.8c0,0,0.1,0,0.1,0c-1-2.9-0.5-5.8-0.5-8.8c0-2.2-0.9-4.9,3.2-5.3
			C949.3,453.4,949.4,455.8,950.1,458.1z"/>
		<path class="st10" d="M936.2,471.8c0-0.6,0.1-1.2,0.1-1.8c0.4,0,0.8,0,1.2,0c0.6-0.3,1.3-0.7,1.9-1c0.3,0.3,0.7,0.7,1,1
			c0,0,0,0,0,0c0,1,0,2,0,3c-0.3,0-0.6,0-1,0C938.4,472.6,937.3,472.2,936.2,471.8z"/>
		<path class="st7" d="M940.4,472.9c0-1,0-2,0-3c0.6,0,1.3,0,1.9,0c0.1,0.3,0.1,0.7,0.2,1c-0.1,0.3-0.1,0.6,0,0.9
			C941.9,472.2,941.2,472.6,940.4,472.9z"/>
		<path class="st14" d="M934.2,454.4c-0.9,0.5-1.9,0.7-2.7-0.3C932.7,451.9,933.3,453.8,934.2,454.4z"/>
		<path class="st13" d="M936.5,459.9c0-0.7-0.1-1.3-0.1-2c0.8,0.1,1.8,0.1,1.6,1.2C937.9,459.4,937,459.7,936.5,459.9z"/>
		<path class="st13" d="M937.5,470c-0.4,0-0.8,0-1.2,0c0-1,0-2,0.1-3C937.7,467.6,937.4,468.8,937.5,470z"/>
		<path class="st7" d="M940.5,469.9c-0.3-0.3-0.7-0.7-1-1C939.8,469.3,940.1,469.6,940.5,469.9z"/>
		<path class="st13" d="M936.4,464c0-0.3,0-0.7,0-1C937.2,463.3,937.1,463.6,936.4,464z"/>
		<path class="st15" d="M958.4,436.9c-0.9,1.9-1.8,4.2-4.3,3.8c-1.5-0.2-1-2.2-1.1-3.4c-0.1-3.1,2.9-1.9,4.3-2.9
			c0.2-0.2,0.9,0.3,1.3,0.5C958.5,435.6,958.5,436.3,958.4,436.9z"/>
		<path class="st10" d="M958.4,436.9c0.1-0.7,0.1-1.3,0.2-2c1,0.2,2.1,0.2,2.1,1.5C960.6,436.6,959.2,436.8,958.4,436.9z"/>
		<path class="st6" d="M940.4,472.9c0.7-0.4,1.5-0.7,2.2-1.1c0.3,0,0.6,0,0.8-0.2c1.3,0,2.6-0.1,3.9-0.1c1,0.8-3,1.8,0.1,2.5
			c-2.5,2.9-5.1,2.5-8-1C939.8,472.9,940.1,472.9,940.4,472.9z"/>
		<path class="st10" d="M947.5,473.9c-3.1-0.7,0.9-1.7-0.1-2.5c0.9-0.8,2.1-0.5,3.1-0.5c0,0.3,0,0.5,0.1,0.8
			C949.9,473.2,949,473.9,947.5,473.9z"/>
		<path class="st10" d="M934.9,476.5c-0.3,0.1-0.4,0.1-0.6,0.2c0-0.1-0.1-0.2-0.1-0.4C934.4,476.4,934.6,476.4,934.9,476.5z"/>
		<path class="st10" d="M864.5,577.8c2.8,1.5,0.7,2-0.6,2.6c-3,1.3-1.8-1.5-2.4-2.5c0,0,0,0,0,0
			C862.5,577.9,863.5,577.9,864.5,577.8z"/>
		<path class="st9" d="M867.5,574.9c1.3,0,2.7,0,4,0c-0.1,1.2-0.4,2.5-1.7,2.6C868,577.7,867.6,576.3,867.5,574.9z"/>
		<path class="st9" d="M864.5,577.8c-1,0-2,0.1-3,0.1c0.5-1.3,1.5-2,3-2C864.5,576.6,864.5,577.2,864.5,577.8z"/>
		<path class="st9" d="M868.9,584.3c-0.2-0.2-0.5-0.4-0.7-0.6c0.2-0.2,0.4-0.4,0.6-0.5c0.1,0,0.4,0.2,0.4,0.3
			C869.1,583.8,868.9,584.1,868.9,584.3z"/>
		<path class="st10" d="M878.4,582.9c0.1,0.4,0.1,0.8,0.2,1.2c0,0.3,0,0.5,0.1,0.7C877.2,584.4,877.4,583.7,878.4,582.9z"/>
		<path class="st13" d="M878.8,584.8c-0.1-0.2-0.2-0.5-0.1-0.7c0.3,0,0.7-0.1,1-0.1c-0.2,0.3-0.3,0.6-0.5,0.9L878.8,584.8z"/>
		<path class="st10" d="M879.3,587.5c0.2,0,0.7-0.2,0.7-0.1c0.2,0.6-0.2,0.5-0.6,0.5C879.4,587.8,879.3,587.5,879.3,587.5z"/>
		<path class="st5" d="M938.4,418.9c-0.3-1-0.6-2-0.9-3c1.1,0.1,2.5-0.3,2.8,1.3C940.5,418.5,939.5,418.8,938.4,418.9z"/>
		<path class="st5" d="M943.5,409.9c0.6,0.1,1.4,0.1,1.5,1c0,0.2-0.4,0.6-0.6,0.6C943.6,411.3,943.6,410.6,943.5,409.9
			C943.5,409.9,943.5,409.9,943.5,409.9z"/>
		<path class="st5" d="M940.2,421.3c0.3,0.1,0.7,0.2,0.8,0.4c0.1,0.2-0.2,0.5-0.3,0.8c-0.3-0.1-0.7-0.2-0.8-0.4
			C939.8,421.9,940.1,421.6,940.2,421.3z"/>
		<path class="st9" d="M861.7,573c-0.3,0.1-0.5,0.1-0.8,0.2c0-0.3,0.1-0.6,0.2-0.8c0-0.1,0.4-0.1,0.4-0.1
			C861.6,572.5,861.6,572.7,861.7,573z"/>
		<path class="st7" d="M1014.3,579c-0.3,1.3-0.6,2.6-0.8,3.9c-1.3,0.7-2.6,1.3-4,2c-0.7-0.3-1.4-0.7-2.1-1c0-0.2-0.1-0.4,0-0.5
			c3.5-3.1,2.4-8.5,6-11.6c1.7,1.8,3.3-0.6,4.9-0.1c0.9,0.7,1.2,1.4,0.1,2.1c-0.8,0-1.6,0.2-2.1,1
			C1014.3,575.5,1013,576.6,1014.3,579z"/>
		<path class="st10" d="M1007.5,584c0.7,0.3,1.4,0.7,2.1,1c-0.1,0.4-0.1,0.9-0.2,1.3c-1.3-0.8-4.1,1-4.1-2.2
			C1006,584,1006.7,584,1007.5,584z"/>
		<path class="st6" d="M929.6,468.7c-0.8-2.2-2.6-3-4.7-3.4c3.2-2.7,0.1-6.6,1.7-9.6c0.7,0.3,1.3,0.5,2,0.8c0.4,0.5,0.7,0.9,1.1,1.4
			c-0.1,2.8-0.1,5.4,2.8,7.2c1.4,0.9,1.6,3,0.5,4.4C931.7,470.9,930.7,469.1,929.6,468.7z"/>
		<path class="st7" d="M929.7,457.9c-0.4-0.5-0.7-0.9-1.1-1.4C929,457,929.3,457.4,929.7,457.9z"/>
		<path class="st3" d="M926.5,553.9c-0.1-0.1-0.3-0.2-0.4-0.2C926.2,553.8,926.3,553.9,926.5,553.9
			C926.5,553.9,926.5,553.9,926.5,553.9z"/>
		<path class="st2" d="M1016.4,574.9c0.5-0.8,1.2-0.9,2.1-1C1018.3,575.3,1018,576.4,1016.4,574.9z"/>
		<path class="st15" d="M925.3,443.6c-1.6,0.1-3.2,0.2-4.8,0.3c-0.8-1.2-1.9-2.6-0.4-3.8c0.9-0.8,2.7-1.5,3.6-1.1
			C925.7,439.6,925.1,441.9,925.3,443.6z"/>
		<path class="st7" d="M939.5,535.9c0.1-0.1,0.2-0.3,0.2-0.4C939.6,535.7,939.5,535.8,939.5,535.9
			C939.5,535.9,939.5,535.9,939.5,535.9z"/>
		<path class="st13" d="M881.5,584c-0.3,0-0.7-0.1-1-0.1c0.1-0.4,0.3-1.1,0.4-1.1C881.7,582.8,881.4,583.5,881.5,584z"/>
		<path class="st7" d="M885.5,583.9c-0.1-0.1-0.3-0.2-0.4-0.2C885.2,583.8,885.3,583.9,885.5,583.9
			C885.5,583.9,885.5,583.9,885.5,583.9z"/>
		<path class="st11" d="M951.5,466.9c-1.4,0.1-2.2,3.3-4.1,0.8c0.7-0.6,1.4-1.2,2.1-1.8C950.3,465.9,951,466.1,951.5,466.9
			L951.5,466.9z"/>
		<path class="st10" d="M927.1,514.7c1.5,0.5,3.7,0,4,2.7C928.7,517.8,927.8,516.4,927.1,514.7C927.1,514.7,927.1,514.7,927.1,514.7
			z"/>
		<path class="st9" d="M1004.5,584.9c-0.3,0.5-0.6,1-0.9,1.5C1003.9,585.9,1004.2,585.4,1004.5,584.9z"/>
		<path class="st11" d="M943.5,471.6c-0.2,0.2-0.5,0.3-0.8,0.2c-0.2-0.3-0.2-0.6,0-0.9C942.9,471.2,943.2,471.4,943.5,471.6z"/>
	</g>
</g>
</svg>
